<mxfile host="app.diagrams.net" modified="2024-03-28T16:07:41.160Z" agent="Mozilla/5.0 (Windows NT 10.0; Win64; x64) AppleWebKit/537.36 (KHTML, like Gecko) Chrome/123.0.0.0 Safari/537.36" version="24.0.7" etag="ge3R5M6PoI4cOYluJAtl" type="github">
  <diagram name="Page-1" id="mQp3-vmaFlieZcn3gRNX">
    <mxGraphModel>
      <root>
        <mxCell id="0" />
        <mxCell id="1" parent="0" />
      </root>
    </mxGraphModel>
  </diagram>
</mxfile>
